<mxfile host="65bd71144e">
    <diagram id="CB9_IMdxcL9IFdkOh5Aj" name="PÃ¡gina-1">
        <mxGraphModel dx="761" dy="563" grid="1" gridSize="10" guides="1" tooltips="1" connect="1" arrows="1" fold="1" page="1" pageScale="1" pageWidth="827" pageHeight="1169" math="0" shadow="0">
            <root>
                <mxCell id="0"/>
                <mxCell id="1" parent="0"/>
                <mxCell id="3" value="#&lt;span style=&quot;color: rgb(229, 192, 123); background-color: rgb(40, 44, 52); font-family: &amp;quot;Cascadia Code&amp;quot;, Consolas, &amp;quot;Courier New&amp;quot;, monospace; font-size: 14px;&quot;&gt;AjaxAdministradores&lt;/span&gt;" style="rounded=1;whiteSpace=wrap;html=1;arcSize=22;" parent="1" vertex="1">
                    <mxGeometry x="110" y="80" width="190" height="60" as="geometry"/>
                </mxCell>
            </root>
        </mxGraphModel>
    </diagram>
</mxfile>